<svg xmlns="http://www.w3.org/2000/svg" viewBox="0 0 32 32" role="img" aria-label="Gents Rail">
  <defs>
    <linearGradient id="gold" x1="6" y1="6" x2="26" y2="26" gradientUnits="userSpaceOnUse">
      <stop offset="0%" stop-color="#ffe48c" />
      <stop offset="100%" stop-color="#ffd65b" />
    </linearGradient>
  </defs>
  <rect width="32" height="32" rx="8" fill="#050403" />
  <rect x="5" y="13.25" width="22" height="1.1" rx="0.55" fill="#ffd65b" opacity="0.32" />
  <rect x="5" y="17.65" width="22" height="1.1" rx="0.55" fill="#ffd65b" opacity="0.32" />
  <path
    fill="url(#gold)"
    d="M16 7.5c-4.69 0-8.5 3.81-8.5 8.5s3.81 8.5 8.5 8.5c2.73 0 5.15-1.29 6.72-3.29l-2.35-1.95C19.58 21.16 17.89 21.8 16 21.8c-3.2 0-5.8-2.6-5.8-5.8S12.8 10.2 16 10.2c2.02 0 3.79 1.03 4.84 2.6h-3.34v2.35h7.5V7.5H16z"
  />
</svg>
